<?xml version="1.0" encoding="UTF-8" standalone="no"?>
<!DOCTYPE svg PUBLIC "-//W3C//DTD SVG 1.1//EN" "http://www.w3.org/Graphics/SVG/1.1/DTD/svg11.dtd">
<svg width="100%" height="100%" viewBox="0 0 480 113" version="1.1" xmlns="http://www.w3.org/2000/svg" xmlns:xlink="http://www.w3.org/1999/xlink" xml:space="preserve" xmlns:serif="http://www.serif.com/" style="fill-rule:evenodd;clip-rule:evenodd;stroke-linejoin:round;stroke-miterlimit:2;">
    <g transform="matrix(1.13786,0,0,0.40537,-286.809,-40.5968)">
        <rect x="280.182" y="100.148" width="119.522" height="19.735" style="fill:rgb(51,51,51);"/>
    </g>
    <g transform="matrix(1.13786,0,0,0.40537,-286.809,39.4032)">
        <rect x="280.182" y="100.148" width="119.522" height="19.735" style="fill:rgb(51,51,51);"/>
    </g>
    <g transform="matrix(1.4056,0,0,0.40537,-377.823,51.4032)">
        <rect x="280.182" y="100.148" width="119.522" height="19.735" style="fill:rgb(51,51,51);"/>
    </g>
    <g transform="matrix(1.67333,0,0,0.40537,-468.837,63.4032)">
        <rect x="280.182" y="100.148" width="119.522" height="19.735" style="fill:rgb(51,51,51);"/>
    </g>
    <g transform="matrix(0.5,0,0,0.842105,-116,-92.4211)">
        <rect x="328" y="124" width="16" height="76" style="fill:rgb(51,51,51);"/>
    </g>
    <g transform="matrix(0.5,0,0,0.842105,-84,-92.4211)">
        <rect x="328" y="124" width="16" height="76" style="fill:rgb(51,51,51);"/>
    </g>
    <g transform="matrix(0.5,0,0,0.842105,-52,-92.4211)">
        <rect x="328" y="124" width="16" height="76" style="fill:rgb(51,51,51);"/>
    </g>
    <g transform="matrix(0.5,0,0,0.842105,-20,-92.4211)">
        <rect x="328" y="124" width="16" height="76" style="fill:rgb(51,51,51);"/>
    </g>
    <g transform="matrix(3.17263,0,0,3.17263,-881.865,-424.722)">
        <path d="M351.504,142.578C350.728,142.578 350.072,142.366 349.536,141.942C349,141.518 348.676,140.954 348.564,140.25L349.416,140.046C349.496,140.582 349.724,141.01 350.1,141.33C350.476,141.65 350.948,141.81 351.516,141.81C352.1,141.81 352.55,141.674 352.866,141.402C353.182,141.13 353.34,140.778 353.34,140.346C353.34,140.042 353.276,139.782 353.148,139.566C353.02,139.35 352.814,139.152 352.53,138.972C352.246,138.792 351.852,138.606 351.348,138.414C350.772,138.198 350.32,137.982 349.992,137.766C349.664,137.55 349.428,137.308 349.284,137.04C349.14,136.772 349.068,136.454 349.068,136.086C349.068,135.454 349.286,134.944 349.722,134.556C350.158,134.168 350.732,133.974 351.444,133.974C351.972,133.974 352.44,134.09 352.848,134.322C353.256,134.554 353.584,134.89 353.832,135.33L353.112,135.774C352.928,135.446 352.69,135.192 352.398,135.012C352.106,134.832 351.78,134.742 351.42,134.742C350.988,134.742 350.63,134.87 350.346,135.126C350.062,135.382 349.92,135.69 349.92,136.05C349.92,136.418 350.064,136.724 350.352,136.968C350.64,137.212 351.128,137.466 351.816,137.73C352.432,137.962 352.912,138.2 353.256,138.444C353.6,138.688 353.844,138.954 353.988,139.242C354.132,139.53 354.204,139.874 354.204,140.274C354.204,140.986 353.968,141.548 353.496,141.96C353.024,142.372 352.36,142.578 351.504,142.578Z" style="fill:rgb(51,51,51);fill-rule:nonzero;"/>
        <path d="M359.424,142.578C358.64,142.578 357.962,142.406 357.39,142.062C356.818,141.718 356.38,141.222 356.076,140.574C355.772,139.926 355.62,139.154 355.62,138.258C355.62,137.37 355.774,136.604 356.082,135.96C356.39,135.316 356.834,134.824 357.414,134.484C357.994,134.144 358.684,133.974 359.484,133.974C360.324,133.974 361.034,134.166 361.614,134.55C362.194,134.934 362.632,135.506 362.928,136.266L362.136,136.566C361.696,135.382 360.812,134.79 359.484,134.79C358.524,134.79 357.782,135.09 357.258,135.69C356.734,136.29 356.472,137.146 356.472,138.258C356.472,139.37 356.73,140.232 357.246,140.844C357.762,141.456 358.488,141.762 359.424,141.762C360.08,141.762 360.638,141.61 361.098,141.306C361.558,141.002 361.904,140.55 362.136,139.95L362.952,140.25C362.64,141.01 362.184,141.588 361.584,141.984C360.984,142.38 360.264,142.578 359.424,142.578Z" style="fill:rgb(51,51,51);fill-rule:nonzero;"/>
        <rect x="364.92" y="134.094" width="0.852" height="8.364" style="fill:rgb(51,51,51);fill-rule:nonzero;"/>
        <path d="M376.476,134.094L376.476,142.458L375.612,142.458L375.612,135.234L372.912,141.762L372.072,141.762L369.36,135.21L369.36,142.458L368.508,142.458L368.508,134.094L369.756,134.094L372.492,140.766L375.228,134.094L376.476,134.094Z" style="fill:rgb(51,51,51);fill-rule:nonzero;"/>
        <path d="M383.496,140.214L380.016,140.214L379.212,142.458L378.276,142.458L381.396,134.094L382.104,134.094L385.236,142.458L384.288,142.458L383.496,140.214ZM383.232,139.482L381.756,135.306L380.268,139.482L383.232,139.482Z" style="fill:rgb(51,51,51);fill-rule:nonzero;"/>
        <path d="M390.672,138.138L393.492,138.138L393.492,142.458L392.808,142.458L392.688,141.15C392.464,141.606 392.11,141.958 391.626,142.206C391.142,142.454 390.576,142.578 389.928,142.578C389.136,142.578 388.458,142.394 387.894,142.026C387.33,141.658 386.904,141.148 386.616,140.496C386.328,139.844 386.184,139.098 386.184,138.258C386.184,137.418 386.33,136.676 386.622,136.032C386.914,135.388 387.35,134.884 387.93,134.52C388.51,134.156 389.216,133.974 390.048,133.974C390.912,133.974 391.632,134.172 392.208,134.568C392.784,134.964 393.212,135.53 393.492,136.266L392.7,136.566C392.26,135.382 391.376,134.79 390.048,134.79C389.064,134.79 388.316,135.096 387.804,135.708C387.292,136.32 387.036,137.158 387.036,138.222C387.036,139.278 387.28,140.132 387.768,140.784C388.256,141.436 388.996,141.762 389.988,141.762C390.772,141.762 391.418,141.542 391.926,141.102C392.434,140.662 392.688,139.994 392.688,139.098L392.688,138.834L390.672,138.834L390.672,138.138Z" style="fill:rgb(51,51,51);fill-rule:nonzero;"/>
        <path d="M399.192,142.578C398.432,142.578 397.764,142.4 397.188,142.044C396.612,141.688 396.164,141.184 395.844,140.532C395.524,139.88 395.364,139.13 395.364,138.282C395.364,137.426 395.524,136.672 395.844,136.02C396.164,135.368 396.612,134.864 397.188,134.508C397.764,134.152 398.432,133.974 399.192,133.974C399.952,133.974 400.62,134.152 401.196,134.508C401.772,134.864 402.22,135.368 402.54,136.02C402.86,136.672 403.02,137.426 403.02,138.282C403.02,139.13 402.86,139.88 402.54,140.532C402.22,141.184 401.772,141.688 401.196,142.044C400.62,142.4 399.952,142.578 399.192,142.578ZM399.192,141.762C399.792,141.762 400.316,141.62 400.764,141.336C401.212,141.052 401.558,140.648 401.802,140.124C402.046,139.6 402.168,138.986 402.168,138.282C402.168,137.578 402.046,136.962 401.802,136.434C401.558,135.906 401.212,135.5 400.764,135.216C400.316,134.932 399.792,134.79 399.192,134.79C398.592,134.79 398.068,134.932 397.62,135.216C397.172,135.5 396.826,135.906 396.582,136.434C396.338,136.962 396.216,137.578 396.216,138.282C396.216,138.986 396.338,139.6 396.582,140.124C396.826,140.648 397.172,141.052 397.62,141.336C398.068,141.62 398.592,141.762 399.192,141.762Z" style="fill:rgb(51,51,51);fill-rule:nonzero;"/>
        <rect x="349.344" y="147.546" width="0.852" height="8.364" style="fill:rgb(51,51,51);fill-rule:nonzero;"/>
        <path d="M358.836,147.546L358.836,155.91L357.9,155.91L353.784,148.998L353.784,155.91L352.932,155.91L352.932,147.546L353.856,147.546L357.984,154.422L357.984,147.546L358.836,147.546Z" style="fill:rgb(51,51,51);fill-rule:nonzero;"/>
        <path d="M363.732,156.03C362.956,156.03 362.3,155.818 361.764,155.394C361.228,154.97 360.904,154.406 360.792,153.702L361.644,153.498C361.724,154.034 361.952,154.462 362.328,154.782C362.704,155.102 363.176,155.262 363.744,155.262C364.328,155.262 364.778,155.126 365.094,154.854C365.41,154.582 365.568,154.23 365.568,153.798C365.568,153.494 365.504,153.234 365.376,153.018C365.248,152.802 365.042,152.604 364.758,152.424C364.474,152.244 364.08,152.058 363.576,151.866C363,151.65 362.548,151.434 362.22,151.218C361.892,151.002 361.656,150.76 361.512,150.492C361.368,150.224 361.296,149.906 361.296,149.538C361.296,148.906 361.514,148.396 361.95,148.008C362.386,147.62 362.96,147.426 363.672,147.426C364.2,147.426 364.668,147.542 365.076,147.774C365.484,148.006 365.812,148.342 366.06,148.782L365.34,149.226C365.156,148.898 364.918,148.644 364.626,148.464C364.334,148.284 364.008,148.194 363.648,148.194C363.216,148.194 362.858,148.322 362.574,148.578C362.29,148.834 362.148,149.142 362.148,149.502C362.148,149.87 362.292,150.176 362.58,150.42C362.868,150.664 363.356,150.918 364.044,151.182C364.66,151.414 365.14,151.652 365.484,151.896C365.828,152.14 366.072,152.406 366.216,152.694C366.36,152.982 366.432,153.326 366.432,153.726C366.432,154.438 366.196,155 365.724,155.412C365.252,155.824 364.588,156.03 363.732,156.03Z" style="fill:rgb(51,51,51);fill-rule:nonzero;"/>
        <path d="M370.332,148.338L367.44,148.338L367.44,147.546L374.1,147.546L374.1,148.338L371.196,148.338L371.196,155.91L370.332,155.91L370.332,148.338Z" style="fill:rgb(51,51,51);fill-rule:nonzero;"/>
        <rect x="375.876" y="147.546" width="0.852" height="8.364" style="fill:rgb(51,51,51);fill-rule:nonzero;"/>
        <path d="M381.396,148.338L378.504,148.338L378.504,147.546L385.164,147.546L385.164,148.338L382.26,148.338L382.26,155.91L381.396,155.91L381.396,148.338Z" style="fill:rgb(51,51,51);fill-rule:nonzero;"/>
        <path d="M389.76,156.03C388.784,156.03 388.04,155.762 387.528,155.226C387.016,154.69 386.76,153.91 386.76,152.886L386.76,147.546L387.612,147.546L387.612,152.802C387.612,153.61 387.788,154.21 388.14,154.602C388.492,154.994 389.032,155.19 389.76,155.19C390.496,155.19 391.04,154.992 391.392,154.596C391.744,154.2 391.92,153.59 391.92,152.766L391.92,147.546L392.772,147.546L392.772,152.826C392.772,153.874 392.516,154.67 392.004,155.214C391.492,155.758 390.744,156.03 389.76,156.03Z" style="fill:rgb(51,51,51);fill-rule:nonzero;"/>
        <path d="M397.26,148.338L394.368,148.338L394.368,147.546L401.028,147.546L401.028,148.338L398.124,148.338L398.124,155.91L397.26,155.91L397.26,148.338Z" style="fill:rgb(51,51,51);fill-rule:nonzero;"/>
        <rect x="402.804" y="147.546" width="0.852" height="8.364" style="fill:rgb(51,51,51);fill-rule:nonzero;"/>
        <path d="M409.656,156.03C408.896,156.03 408.228,155.852 407.652,155.496C407.076,155.14 406.628,154.636 406.308,153.984C405.988,153.332 405.828,152.582 405.828,151.734C405.828,150.878 405.988,150.124 406.308,149.472C406.628,148.82 407.076,148.316 407.652,147.96C408.228,147.604 408.896,147.426 409.656,147.426C410.416,147.426 411.084,147.604 411.66,147.96C412.236,148.316 412.684,148.82 413.004,149.472C413.324,150.124 413.484,150.878 413.484,151.734C413.484,152.582 413.324,153.332 413.004,153.984C412.684,154.636 412.236,155.14 411.66,155.496C411.084,155.852 410.416,156.03 409.656,156.03ZM409.656,155.214C410.256,155.214 410.78,155.072 411.228,154.788C411.676,154.504 412.022,154.1 412.266,153.576C412.51,153.052 412.632,152.438 412.632,151.734C412.632,151.03 412.51,150.414 412.266,149.886C412.022,149.358 411.676,148.952 411.228,148.668C410.78,148.384 410.256,148.242 409.656,148.242C409.056,148.242 408.532,148.384 408.084,148.668C407.636,148.952 407.29,149.358 407.046,149.886C406.802,150.414 406.68,151.03 406.68,151.734C406.68,152.438 406.802,153.052 407.046,153.576C407.29,154.1 407.636,154.504 408.084,154.788C408.532,155.072 409.056,155.214 409.656,155.214Z" style="fill:rgb(51,51,51);fill-rule:nonzero;"/>
        <path d="M421.56,147.546L421.56,155.91L420.624,155.91L416.508,148.998L416.508,155.91L415.656,155.91L415.656,147.546L416.58,147.546L420.708,154.422L420.708,147.546L421.56,147.546Z" style="fill:rgb(51,51,51);fill-rule:nonzero;"/>
        <path d="M426.456,156.03C425.68,156.03 425.024,155.818 424.488,155.394C423.952,154.97 423.628,154.406 423.516,153.702L424.368,153.498C424.448,154.034 424.676,154.462 425.052,154.782C425.428,155.102 425.9,155.262 426.468,155.262C427.052,155.262 427.502,155.126 427.818,154.854C428.134,154.582 428.292,154.23 428.292,153.798C428.292,153.494 428.228,153.234 428.1,153.018C427.972,152.802 427.766,152.604 427.482,152.424C427.198,152.244 426.804,152.058 426.3,151.866C425.724,151.65 425.272,151.434 424.944,151.218C424.616,151.002 424.38,150.76 424.236,150.492C424.092,150.224 424.02,149.906 424.02,149.538C424.02,148.906 424.238,148.396 424.674,148.008C425.11,147.62 425.684,147.426 426.396,147.426C426.924,147.426 427.392,147.542 427.8,147.774C428.208,148.006 428.536,148.342 428.784,148.782L428.064,149.226C427.88,148.898 427.642,148.644 427.35,148.464C427.058,148.284 426.732,148.194 426.372,148.194C425.94,148.194 425.582,148.322 425.298,148.578C425.014,148.834 424.872,149.142 424.872,149.502C424.872,149.87 425.016,150.176 425.304,150.42C425.592,150.664 426.08,150.918 426.768,151.182C427.384,151.414 427.864,151.652 428.208,151.896C428.552,152.14 428.796,152.406 428.94,152.694C429.084,152.982 429.156,153.326 429.156,153.726C429.156,154.438 428.92,155 428.448,155.412C427.976,155.824 427.312,156.03 426.456,156.03Z" style="fill:rgb(51,51,51);fill-rule:nonzero;"/>
        <path d="M354.06,169.362L351.924,165.654L350.196,165.654L350.196,169.362L349.344,169.362L349.344,160.998L351.732,160.998C352.636,160.998 353.322,161.196 353.79,161.592C354.258,161.988 354.492,162.562 354.492,163.314C354.492,163.898 354.348,164.378 354.06,164.754C353.772,165.13 353.344,165.394 352.776,165.546L355.056,169.362L354.06,169.362ZM351.648,164.862C352.968,164.862 353.628,164.35 353.628,163.326C353.628,162.302 352.968,161.79 351.648,161.79L350.196,161.79L350.196,164.862L351.648,164.862Z" style="fill:rgb(51,51,51);fill-rule:nonzero;"/>
        <path d="M361.164,167.118L357.684,167.118L356.88,169.362L355.944,169.362L359.064,160.998L359.772,160.998L362.904,169.362L361.956,169.362L361.164,167.118ZM360.9,166.386L359.424,162.21L357.936,166.386L360.9,166.386Z" style="fill:rgb(51,51,51);fill-rule:nonzero;"/>
        <path d="M370.608,160.998L370.608,169.362L369.672,169.362L365.556,162.45L365.556,169.362L364.704,169.362L364.704,160.998L365.628,160.998L369.756,167.874L369.756,160.998L370.608,160.998Z" style="fill:rgb(51,51,51);fill-rule:nonzero;"/>
        <path d="M379.08,169.362L376.32,164.646L374.196,166.83L374.196,169.362L373.344,169.362L373.344,160.998L374.196,160.998L374.196,165.75L378.768,160.998L379.896,160.998L376.908,164.046L380.064,169.362L379.08,169.362Z" style="fill:rgb(51,51,51);fill-rule:nonzero;"/>
        <rect x="381.876" y="160.998" width="0.852" height="8.364" style="fill:rgb(51,51,51);fill-rule:nonzero;"/>
        <path d="M391.368,160.998L391.368,169.362L390.432,169.362L386.316,162.45L386.316,169.362L385.464,169.362L385.464,160.998L386.388,160.998L390.516,167.874L390.516,160.998L391.368,160.998Z" style="fill:rgb(51,51,51);fill-rule:nonzero;"/>
        <path d="M398.04,165.042L400.86,165.042L400.86,169.362L400.176,169.362L400.056,168.054C399.832,168.51 399.478,168.862 398.994,169.11C398.51,169.358 397.944,169.482 397.296,169.482C396.504,169.482 395.826,169.298 395.262,168.93C394.698,168.562 394.272,168.052 393.984,167.4C393.696,166.748 393.552,166.002 393.552,165.162C393.552,164.322 393.698,163.58 393.99,162.936C394.282,162.292 394.718,161.788 395.298,161.424C395.878,161.06 396.584,160.878 397.416,160.878C398.28,160.878 399,161.076 399.576,161.472C400.152,161.868 400.58,162.434 400.86,163.17L400.068,163.47C399.628,162.286 398.744,161.694 397.416,161.694C396.432,161.694 395.684,162 395.172,162.612C394.66,163.224 394.404,164.062 394.404,165.126C394.404,166.182 394.648,167.036 395.136,167.688C395.624,168.34 396.364,168.666 397.356,168.666C398.14,168.666 398.786,168.446 399.294,168.006C399.802,167.566 400.056,166.898 400.056,166.002L400.056,165.738L398.04,165.738L398.04,165.042Z" style="fill:rgb(51,51,51);fill-rule:nonzero;"/>
        <path d="M405.456,169.482C404.68,169.482 404.024,169.27 403.488,168.846C402.952,168.422 402.628,167.858 402.516,167.154L403.368,166.95C403.448,167.486 403.676,167.914 404.052,168.234C404.428,168.554 404.9,168.714 405.468,168.714C406.052,168.714 406.502,168.578 406.818,168.306C407.134,168.034 407.292,167.682 407.292,167.25C407.292,166.946 407.228,166.686 407.1,166.47C406.972,166.254 406.766,166.056 406.482,165.876C406.198,165.696 405.804,165.51 405.3,165.318C404.724,165.102 404.272,164.886 403.944,164.67C403.616,164.454 403.38,164.212 403.236,163.944C403.092,163.676 403.02,163.358 403.02,162.99C403.02,162.358 403.238,161.848 403.674,161.46C404.11,161.072 404.684,160.878 405.396,160.878C405.924,160.878 406.392,160.994 406.8,161.226C407.208,161.458 407.536,161.794 407.784,162.234L407.064,162.678C406.88,162.35 406.642,162.096 406.35,161.916C406.058,161.736 405.732,161.646 405.372,161.646C404.94,161.646 404.582,161.774 404.298,162.03C404.014,162.286 403.872,162.594 403.872,162.954C403.872,163.322 404.016,163.628 404.304,163.872C404.592,164.116 405.08,164.37 405.768,164.634C406.384,164.866 406.864,165.104 407.208,165.348C407.552,165.592 407.796,165.858 407.94,166.146C408.084,166.434 408.156,166.778 408.156,167.178C408.156,167.89 407.92,168.452 407.448,168.864C406.976,169.276 406.312,169.482 405.456,169.482Z" style="fill:rgb(51,51,51);fill-rule:nonzero;"/>
    </g>
</svg>
